<svg width="51" height="51" viewBox="0 0 51 51" fill="none" xmlns="http://www.w3.org/2000/svg">
<path fill-rule="evenodd" clip-rule="evenodd" d="M0 0C15.2371 0 30.4742 0 45.7112 0C45.7112 15.2371 45.7112 30.4742 45.7112 45.7112C30.4742 45.7112 15.2371 45.7112 0 45.7112C0 30.4742 0 15.2371 0 0ZM23.3489 7.67335C23.3306 10.3044 23.3489 12.9353 23.4037 15.5659C23.8148 15.6372 24.2351 15.6737 24.6643 15.6756C25.1518 15.687 25.6268 15.6321 26.0894 15.5111C28.7903 12.9199 31.4577 10.2891 34.0916 7.61854C34.8406 7.60027 35.5898 7.582 36.3388 7.56373C37.1282 7.56406 37.8772 7.63714 38.586 7.78297C37.0148 9.28114 35.4801 10.8158 33.982 12.387C32.2526 13.9153 30.6083 15.5413 29.0491 17.265C32.6886 20.9228 36.3426 24.5586 40.011 28.1722C38.4953 28.2994 36.9607 28.3176 35.407 28.227C32.3157 25.1173 29.2097 22.0296 26.0894 18.9641C25.196 18.8553 24.2825 18.8188 23.3489 18.8545C23.3854 21.9247 23.3489 24.9941 23.2393 28.0625C22.2162 27.3683 21.193 26.674 20.1699 25.9798C20.0968 23.6234 20.0238 21.2849 19.9507 18.9641C16.114 18.818 12.2774 18.818 8.44068 18.9641C8.31405 19.7485 8.29579 20.5523 8.38587 21.3758C13.3742 24.6737 18.3436 27.9988 23.2941 31.3511C23.3672 33.7992 23.3672 36.2475 23.2941 38.6956C17.2545 38.8232 11.2071 38.8415 5.15211 38.7504C5.00647 37.6618 5.00647 36.5838 5.15211 35.5166C10.1215 35.5166 15.091 35.5166 20.0603 35.5166C20.0785 34.6754 20.0603 33.835 20.0055 32.9954C19.8285 32.8983 19.6641 32.7887 19.5122 32.6665C14.7098 29.5159 9.92307 26.3369 5.15211 23.1297C5.04252 20.646 5.00598 18.1613 5.04249 15.6756C10.0305 15.7119 14.9999 15.6754 19.9507 15.5659C20.0601 12.9174 20.0966 10.2501 20.0603 7.56373C21.1655 7.53003 22.2617 7.56657 23.3489 7.67335Z" fill="#3A506B"/>
<path fill-rule="evenodd" clip-rule="evenodd" d="M50.9864 2.64429C50.9864 18.7583 50.9864 34.8724 50.9864 50.9864C34.7916 51.0228 18.6045 50.9862 2.42505 50.8768C2.42505 50.0363 2.42505 49.196 2.42505 48.3555C17.6986 48.3555 32.9723 48.3555 48.2459 48.3555C48.3555 33.1369 48.392 17.8998 48.3555 2.64429C49.2325 2.64429 50.1094 2.64429 50.9864 2.64429Z" fill="#3A506B"/>
</svg>
